<?xml version="1.0" encoding="UTF-8" standalone="no"?>
<!--
/**
 * Copyright (C) Joseph Lehner 2012 <joseph.c.lehner@gmail.com>
 *
 * This file is part of RxDroid.
 *
 * This work is licensed under the Creative Commons 
 * Attribution-NonCommercial-ShareAlike 3.0 Unported 
 * License. To view a copy of this license, visit 
 * http://creativecommons.org/licenses/by-nc-sa/3.0/.
 *
 *
 */
-->

<!-- Created with Inkscape (http://www.inkscape.org/) -->

<svg
   xmlns:dc="http://purl.org/dc/elements/1.1/"
   xmlns:cc="http://creativecommons.org/ns#"
   xmlns:rdf="http://www.w3.org/1999/02/22-rdf-syntax-ns#"
   xmlns:svg="http://www.w3.org/2000/svg"
   xmlns="http://www.w3.org/2000/svg"
   xmlns:sodipodi="http://sodipodi.sourceforge.net/DTD/sodipodi-0.dtd"
   xmlns:inkscape="http://www.inkscape.org/namespaces/inkscape"
   width="744.09448819"
   height="1052.3622047"
   id="svg3659"
   version="1.1"
   inkscape:version="0.48.2 r9819"
   sodipodi:docname="drug_icons_light.svg">
  <defs
     id="defs3661" />
  <sodipodi:namedview
     id="base"
     pagecolor="#5c5c5c"
     bordercolor="#666666"
     borderopacity="1.0"
     inkscape:pageopacity="1"
     inkscape:pageshadow="2"
     inkscape:zoom="15.839192"
     inkscape:cx="350.59982"
     inkscape:cy="615.04061"
     inkscape:document-units="px"
     inkscape:current-layer="layer1"
     showgrid="false"
     inkscape:window-width="1680"
     inkscape:window-height="968"
     inkscape:window-x="0"
     inkscape:window-y="33"
     inkscape:window-maximized="1" />
  <metadata
     id="metadata3664">
    <rdf:RDF>
      <cc:Work
         rdf:about="">
        <dc:format>image/svg+xml</dc:format>
        <dc:type
           rdf:resource="http://purl.org/dc/dcmitype/StillImage" />
        <dc:title />
      </cc:Work>
    </rdf:RDF>
  </metadata>
  <g
     inkscape:label="Layer 1"
     inkscape:groupmode="layer"
     id="layer1">
    <g
       id="g4740">
      <rect
         y="281.2016"
         x="228.0659"
         height="48"
         width="48"
         id="rect3713-5-6"
         style="fill:#ffffff;fill-opacity:0;stroke:none;display:inline" />
      <path
         sodipodi:type="arc"
         style="fill:none;stroke:#f9f9f9;stroke-width:76.03289795000000595;stroke-linejoin:miter;stroke-miterlimit:4;stroke-opacity:1;stroke-dasharray:none;display:inline"
         id="path3717-0-7-7-5"
         sodipodi:cx="263.64981"
         sodipodi:cy="534.15393"
         sodipodi:rx="116.16754"
         sodipodi:ry="114.14724"
         d="m 379.81735,534.15393 c 0,63.04178 -52.00998,114.14724 -116.16754,114.14724 -64.15756,0 -116.16754,-51.10546 -116.16754,-114.14724 0,-63.04178 52.00998,-114.14724 116.16754,-114.14724 64.15756,0 116.16754,51.10546 116.16754,114.14724 z"
         transform="matrix(0.0450544,0.0450544,-0.01596765,0.01596765,263.61131,272.01854)" />
      <path
         sodipodi:open="true"
         sodipodi:end="3.2114058"
         sodipodi:start="0"
         sodipodi:type="arc"
         style="fill:none;stroke:#f9f9f9;stroke-width:64.64161681999999587;stroke-linejoin:miter;stroke-miterlimit:4;stroke-opacity:1;stroke-dasharray:none;display:inline"
         id="path3717-0-7-7-5-8"
         sodipodi:cx="263.64981"
         sodipodi:cy="534.15393"
         sodipodi:rx="116.16754"
         sodipodi:ry="114.14724"
         d="m 379.81735,534.15393 c 0,63.04178 -52.00998,114.14724 -116.16754,114.14724 -64.15756,0 -116.16754,-51.10546 -116.16754,-114.14724 0,-2.6566 0.0944,-5.31238 0.28298,-7.96251"
         transform="matrix(0.0450544,0.0450544,-0.02209122,0.02209122,245.43193,290.19793)" />
      <rect
         transform="matrix(0.70710678,0.70710678,-0.70710678,0.70710678,0,0)"
         y="17.927565"
         x="401.5061"
         height="30.713726"
         width="2.8840692"
         id="rect4071"
         style="stroke-width:1.09800005000000001;stroke-miterlimit:4;stroke-dasharray:none;fill:#f9f9f9" />
      <rect
         transform="matrix(0.70710678,0.70710678,-0.70710678,0.70710678,0,0)"
         y="17.927565"
         x="386.70251"
         height="30.713726"
         width="2.8840692"
         id="rect4071-3"
         style="stroke-width:1.09800005000000001;stroke-miterlimit:4;stroke-dasharray:none;display:inline;fill:#f9f9f9" />
      <path
         sodipodi:type="arc"
         style="fill:none;stroke:#f9f9f9;stroke-width:76.03289795000000595;stroke-linejoin:miter;stroke-miterlimit:4;stroke-opacity:1;stroke-dasharray:none;display:inline"
         id="path3717-0-7-7-5-2"
         sodipodi:cx="263.64981"
         sodipodi:cy="534.15393"
         sodipodi:rx="116.16754"
         sodipodi:ry="114.14724"
         d="m 379.81735,534.15393 c 0,63.04178 -52.00998,114.14724 -116.16754,114.14724 -64.15756,0 -116.16754,-51.10546 -116.16754,-114.14724 0,-63.04178 52.00998,-114.14724 116.16754,-114.14724 64.15756,0 116.16754,51.10546 116.16754,114.14724 z"
         transform="matrix(0.0450544,0.0450544,-0.01596765,0.01596765,233.82167,301.80816)" />
      <path
         sodipodi:type="arc"
         style="fill:#f9f9f9;fill-opacity:1;stroke:#f9f9f9;stroke-width:33.18492126000000297;stroke-linejoin:miter;stroke-miterlimit:4;stroke-opacity:1;stroke-dasharray:none;display:inline"
         id="path3717-0-7-7-5-1-0"
         sodipodi:cx="263.64981"
         sodipodi:cy="534.15393"
         sodipodi:rx="116.16754"
         sodipodi:ry="114.14724"
         d="m 379.81735,534.15393 c 0,63.04178 -52.00998,114.14724 -116.16754,114.14724 -64.15756,0 -116.16754,-51.10546 -116.16754,-114.14724 0,-63.04178 52.00998,-114.14724 116.16754,-114.14724 64.15756,0 116.16754,51.10546 116.16754,114.14724 z"
         transform="matrix(0.00986708,0.00986708,-0.00349698,0.00349698,241.99719,312.18668)" />
      <path
         sodipodi:open="true"
         sodipodi:end="3.1415927"
         sodipodi:start="0"
         sodipodi:type="arc"
         style="fill:#000000;fill-opacity:1;stroke:#000000;stroke-width:33.18925858;stroke-linejoin:miter;stroke-miterlimit:4;stroke-opacity:1;stroke-dasharray:none;display:inline"
         id="path3717-0-7-7-5-8-0-4"
         sodipodi:cx="263.64981"
         sodipodi:cy="534.15393"
         sodipodi:rx="116.16754"
         sodipodi:ry="114.14724"
         d="m 379.81735,534.15393 c 0,63.04178 -52.00998,114.14724 -116.16754,114.14724 -64.15756,0 -116.16754,-51.10546 -116.16754,-114.14724 0,0 0,0 0,0"
         transform="matrix(0.00986708,0.00986708,-0.00349698,0.00349698,238.60508,315.57879)" />
      <rect
         transform="matrix(0.70710678,0.70710678,-0.70710678,0.70710678,0,0)"
         y="52.25573"
         x="393.78732"
         height="4.8618927"
         width="3.5180483"
         id="rect4071-3-8-9"
         style="stroke-width:1.09800005000000001;stroke-miterlimit:4;stroke-dasharray:none;display:inline;fill:#f9f9f9" />
      <path
         sodipodi:type="arc"
         style="fill:#f9f9f9;fill-opacity:1;stroke:#f9f9f9;stroke-width:33.18492126000000297;stroke-linejoin:miter;stroke-miterlimit:4;stroke-opacity:1;stroke-dasharray:none;display:inline"
         id="path3717-0-7-7-5-1"
         sodipodi:cx="263.64981"
         sodipodi:cy="534.15393"
         sodipodi:rx="116.16754"
         sodipodi:ry="114.14724"
         d="m 379.81735,534.15393 c 0,63.04178 -52.00998,114.14724 -116.16754,114.14724 -64.15756,0 -116.16754,-51.10546 -116.16754,-114.14724 0,-63.04178 52.00998,-114.14724 116.16754,-114.14724 64.15756,0 116.16754,51.10546 116.16754,114.14724 z"
         transform="matrix(6.7789336e-4,-0.01366873,0.00540543,-2.6807708e-4,269.6961,286.67918)" />
      <path
         sodipodi:open="true"
         sodipodi:end="3.1415927"
         sodipodi:start="0"
         sodipodi:type="arc"
         style="fill:#f9f9f9;fill-opacity:1;stroke:#f9f9f9;stroke-width:33.18925858000000062;stroke-linejoin:miter;stroke-miterlimit:4;stroke-opacity:1;stroke-dasharray:none;display:inline"
         id="path3717-0-7-7-5-8-0"
         sodipodi:cx="263.64981"
         sodipodi:cy="534.15393"
         sodipodi:rx="116.16754"
         sodipodi:ry="114.14724"
         d="m 379.81735,534.15393 c 0,63.04178 -52.00998,114.14724 -116.16754,114.14724 -64.15756,0 -116.16754,-51.10546 -116.16754,-114.14724 0,0 0,0 0,0"
         transform="matrix(0.00717806,0.00717806,-0.00283863,0.00283863,264.82918,287.04641)" />
      <rect
         transform="matrix(0.70710678,0.70710678,-0.70710678,0.70710678,0,0)"
         y="8.3114872"
         x="391.6261"
         height="9.5807409"
         width="2.5705383"
         id="rect4071-4"
         style="stroke-width:1.09800005000000001;stroke-miterlimit:4;stroke-dasharray:none;display:inline;fill:#f9f9f9" />
      <rect
         transform="matrix(0.70710678,0.70710678,-0.70710678,0.70710678,0,0)"
         y="6.2756824"
         x="391.63184"
         height="11.616996"
         width="0.20054638"
         id="rect4071-3-8"
         style="stroke-width:1.09800005000000001;stroke-miterlimit:4;stroke-dasharray:none;display:inline;fill:#f9f9f9" />
      <rect
         transform="matrix(0.70710678,0.70710678,-0.70710678,0.70710678,0,0)"
         y="8.0259037"
         x="392.21228"
         height="0.81973046"
         width="0.86198461"
         id="rect4257"
         style="fill:#f9f9f9;fill-opacity:1;stroke-width:2.35100007000000000;stroke-miterlimit:4;stroke-dasharray:none" />
      <rect
         transform="matrix(0.70710678,0.70710678,-0.70710678,0.70710678,0,0)"
         y="7.5864506"
         x="391.81506"
         height="0.73522162"
         width="0.70140678"
         id="rect4261"
         style="fill:#f9f9f9;fill-opacity:1;stroke-width:2.35100007000000000;stroke-miterlimit:4;stroke-dasharray:none" />
      <rect
         transform="matrix(0.70710678,0.70710678,0.70710678,-0.70710678,0,0)"
         y="-7.7808437"
         x="391.64185"
         height="0.87888622"
         width="0.44789401"
         id="rect4259-8"
         style="fill:#f9f9f9;fill-opacity:1;stroke-width:2.35100007000000000;stroke-miterlimit:4;stroke-dasharray:none;display:inline" />
      <rect
         transform="matrix(0.70710678,0.70710678,0.70710678,-0.70710678,0,0)"
         y="-7.7639294"
         x="391.79395"
         height="0.48169726"
         width="0.5070498"
         id="rect4259-2"
         style="fill:#f9f9f9;fill-opacity:1;stroke-width:2.35100007000000000;stroke-miterlimit:4;stroke-dasharray:none;display:inline" />
      <rect
         transform="matrix(0.70710678,0.70710678,0.70710678,-0.70710678,0,0)"
         y="-8.2836628"
         x="392.263"
         height="0.48169726"
         width="0.5070498"
         id="rect4259-2-1"
         style="fill:#f9f9f9;fill-opacity:1;stroke-width:2.35100007000000000;stroke-miterlimit:4;stroke-dasharray:none;display:inline" />
      <path
         sodipodi:type="arc"
         style="fill:#f9f9f9;fill-opacity:1;stroke:#f9f9f9;stroke-width:33.18492126000000297;stroke-linejoin:miter;stroke-miterlimit:4;stroke-opacity:1;stroke-dasharray:none;display:inline"
         id="path3717-0-7-7-5-1-0-3"
         sodipodi:cx="263.64981"
         sodipodi:cy="534.15393"
         sodipodi:rx="116.16754"
         sodipodi:ry="114.14724"
         d="m 379.81735,534.15393 c 0,63.04178 -52.00998,114.14724 -116.16754,114.14724 -64.15756,0 -116.16754,-51.10546 -116.16754,-114.14724 0,-63.04178 52.00998,-114.14724 116.16754,-114.14724 64.15756,0 116.16754,51.10546 116.16754,114.14724 z"
         transform="matrix(0.00986708,0.00986708,-0.00349698,0.00349698,239.90826,314.27561)" />
      <path
         sodipodi:open="true"
         sodipodi:end="3.1415927"
         sodipodi:start="0"
         sodipodi:type="arc"
         style="fill:#f9f9f9;fill-opacity:1;stroke:#f9f9f9;stroke-width:33.18925858000000062;stroke-linejoin:miter;stroke-miterlimit:4;stroke-opacity:1;stroke-dasharray:none;display:inline"
         id="path3717-0-7-7-5-8-0-4-2"
         sodipodi:cx="263.64981"
         sodipodi:cy="534.15393"
         sodipodi:rx="116.16754"
         sodipodi:ry="114.14724"
         d="m 379.81735,534.15393 c 0,63.04178 -52.00998,114.14724 -116.16754,114.14724 -64.15756,0 -116.16754,-51.10546 -116.16754,-114.14724 0,0 0,0 0,0"
         transform="matrix(0.00986708,0.00986708,-0.00349698,0.00349698,236.51615,317.66772)" />
      <rect
         transform="matrix(0.70710678,0.70710678,-0.70710678,0.70710678,0,0)"
         y="55.209923"
         x="393.78732"
         height="4.8618927"
         width="3.5180483"
         id="rect4071-3-8-9-0"
         style="stroke-width:1.09800005000000001;stroke-miterlimit:4;stroke-dasharray:none;display:inline;fill:#f9f9f9" />
    </g>
    <g
       id="g4852">
      <rect
         y="415.229"
         x="375.36267"
         height="48"
         width="48"
         id="rect3713-5-7"
         style="fill:none;stroke:none;display:inline" />
      <path
         sodipodi:type="arc"
         style="fill:none;stroke:#f9f9f9;stroke-width:33.18925858000000062;stroke-linejoin:miter;stroke-miterlimit:4;stroke-opacity:1;stroke-dasharray:none;display:inline"
         id="path3717-0-7-7-3"
         sodipodi:cx="263.64981"
         sodipodi:cy="534.15393"
         sodipodi:rx="116.16754"
         sodipodi:ry="114.14724"
         d="m 379.81735,534.15393 c 0,63.04178 -52.00998,114.14724 -116.16754,114.14724 -64.15756,0 -116.16754,-51.10546 -116.16754,-114.14724 0,-63.04178 52.00998,-114.14724 116.16754,-114.14724 64.15756,0 116.16754,51.10546 116.16754,114.14724 z"
         transform="matrix(0.15613692,0,0,0.05533624,358.19722,393.01594)" />
      <path
         sodipodi:open="true"
         sodipodi:end="3.1764992"
         sodipodi:start="0"
         sodipodi:type="arc"
         style="fill:none;stroke:#f9f9f9;stroke-width:39.96063613999999831;stroke-linejoin:miter;stroke-miterlimit:4;stroke-opacity:1;stroke-dasharray:none;display:inline"
         id="path3717-0-7-7-7-2"
         sodipodi:cx="263.64981"
         sodipodi:cy="534.15393"
         sodipodi:rx="116.16754"
         sodipodi:ry="114.14724"
         d="m 379.81735,534.15393 c 0,63.04178 -52.00998,114.14724 -116.16754,114.14724 -64.15756,0 -116.16754,-51.10546 -116.16754,-114.14724 0,-1.3282 0.0236,-2.65629 0.0708,-3.98368"
         transform="matrix(0.1056498,0,0,0.04426898,371.50814,433.67691)" />
      <rect
         transform="matrix(-0.17127094,-0.98522397,0.9843801,-0.17605631,0,0)"
         y="301.54514"
         x="-518.77295"
         height="2.88238"
         width="35.053417"
         id="rect3794-9-5-21-8"
         style="fill:#f9f9f9;fill-opacity:1;stroke:none;display:inline" />
      <rect
         transform="matrix(-0.17127094,0.98522397,0.9843801,0.17605631,0,0)"
         y="482.55313"
         x="343.37311"
         height="2.88238"
         width="35.053417"
         id="rect3794-9-5-21-7-0"
         style="fill:#f9f9f9;fill-opacity:1;stroke:none;display:inline" />
    </g>
    <path
       style="fill:none;stroke:#f9f9f9;stroke-width:2.38659763;stroke-linejoin:miter;stroke-miterlimit:4;stroke-opacity:1;stroke-dasharray:none;display:inline"
       d="M 334.4375 422.4375 C 333.68071 422.42731 333.05582 422.63168 332.625 423.0625 C 330.90173 424.78577 332.90831 429.56456 337.09375 433.75 C 341.27919 437.93544 346.05798 439.94202 347.78125 438.21875 C 348.96448 437.03552 348.35968 434.38641 346.53125 431.5 C 345.21595 431.57443 343.3778 430.6903 341.78125 429.09375 C 340.195 427.5075 339.31343 425.65749 339.375 424.34375 C 337.52182 423.16207 335.77069 422.45545 334.4375 422.4375 z "
       id="path3717-0-7-7-7-2-1" />
    <rect
       style="fill:#f9f9f9;fill-opacity:1;stroke:none;display:inline"
       id="rect3794-9-5-21-7-0-2"
       width="39.01474"
       height="2.5233898"
       x="-41.91008"
       y="-539.35162"
       transform="matrix(0.75256069,-0.6585229,-0.62183865,-0.78314538,0,0)" />
    <rect
       style="fill:#f9f9f9;fill-opacity:1;stroke:none;display:inline"
       id="rect3794-9-5-21-7-0-2-2"
       width="39.01474"
       height="2.5233898"
       x="-166.3942"
       y="549.6142"
       transform="matrix(0.6585229,-0.75256069,0.78314538,0.62183865,0,0)" />
    <rect
       style="fill:#f9f9f9;fill-opacity:1;stroke-width:2.73300004;stroke-miterlimit:4;stroke-dasharray:none"
       id="rect4634"
       width="28.661339"
       height="2.3865974"
       x="530.73779"
       y="101.81566"
       transform="matrix(0.70710678,0.70710678,-0.70710678,0.70710678,0,0)" />
    <rect
       style="fill:#f9f9f9;fill-opacity:1;stroke-width:2.73300004;stroke-miterlimit:4;stroke-dasharray:none;display:inline"
       id="rect4634-5"
       width="28.661339"
       height="2.3865974"
       x="530.83423"
       y="99.734306"
       transform="matrix(0.70710678,0.70710678,-0.70710678,0.70710678,0,0)" />
    <path
       transform="matrix(0.01454455,0.01454455,-0.0075384,0.0075384,343.94844,419.21503)"
       d="m 379.81735,534.15393 a 116.16754,114.14724 0 1 1 -232.33508,0"
       sodipodi:ry="114.14724"
       sodipodi:rx="116.16754"
       sodipodi:cy="534.15393"
       sodipodi:cx="263.64981"
       id="path3717-0-7-1-1-0"
       style="fill:none;stroke:#f9f9f9;stroke-width:18.39486313;stroke-linejoin:miter;stroke-miterlimit:4;stroke-opacity:1;stroke-dasharray:none;display:inline"
       sodipodi:type="arc"
       sodipodi:start="0"
       sodipodi:end="3.1415927"
       sodipodi:open="true" />
    <rect
       style="fill:none;stroke:none;display:inline"
       id="rect3713-5-9"
       width="48"
       height="48"
       x="259.55643"
       y="353.64453" />
    <g
       id="g4859"
       transform="translate(115.35714,33.571429)">
      <rect
         y="327.12857"
         x="151.97668"
         height="48"
         width="48"
         id="rect4816-4"
         style="fill:none;stroke:none" />
      <g
         transform="translate(-107.58125,-26.516504)"
         id="g4681">
        <path
           transform="matrix(0.1528633,0,0,0.05417604,243.25405,352.073)"
           d="m 364.45599,477.42573 c 31.88464,54.70547 12.59978,124.45111 -43.07394,155.78123 -55.67371,31.33012 -126.65378,12.38065 -158.53842,-42.32482 -19.83578,-34.03288 -20.50174,-75.6888 -1.76367,-110.3171"
           sodipodi:ry="114.14724"
           sodipodi:rx="116.16754"
           sodipodi:cy="534.15393"
           sodipodi:cx="263.64981"
           id="path3717-0-7-7-2"
           style="fill:none;stroke:#f9f9f9;stroke-width:33.18925858;stroke-linejoin:miter;stroke-miterlimit:4;stroke-opacity:1;stroke-dasharray:none;display:inline"
           sodipodi:type="arc"
           sodipodi:start="5.7630772"
           sodipodi:end="9.9134702"
           sodipodi:open="true" />
        <path
           transform="matrix(0.1528633,0,0,0.05417604,243.25405,345.33939)"
           d="m 379.81735,534.15393 c 0,63.04178 -52.00998,114.14724 -116.16754,114.14724 -64.15756,0 -116.16754,-51.10546 -116.16754,-114.14724 0,-63.04178 52.00998,-114.14724 116.16754,-114.14724 64.15756,0 116.16754,51.10546 116.16754,114.14724 z"
           sodipodi:ry="114.14724"
           sodipodi:rx="116.16754"
           sodipodi:cy="534.15393"
           sodipodi:cx="263.64981"
           id="path3717-0-7-7"
           style="fill:none;stroke:#f9f9f9;stroke-width:33.18925858;stroke-linejoin:miter;stroke-miterlimit:4;stroke-opacity:1;stroke-dasharray:none;display:inline"
           sodipodi:type="arc" />
        <rect
           style="fill:#f9f9f9;fill-opacity:1;stroke:none"
           id="rect4722"
           width="2.7779195"
           height="6.2867589"
           x="264.28955"
           y="374.45804" />
        <rect
           style="fill:#f9f9f9;fill-opacity:1;stroke:none;display:inline"
           id="rect4722-5"
           width="2.7779195"
           height="6.2867589"
           x="300.04642"
           y="374.55933" />
        <rect
           style="fill:#f9f9f9;fill-opacity:1;stroke:none"
           id="rect3206"
           width="3"
           height="15.85043"
           x="463.82278"
           y="56.388226"
           transform="matrix(0.70710678,0.70710678,-0.70710678,0.70710678,0,0)" />
      </g>
    </g>
    <rect
       style="fill:#ff0000;fill-opacity:1;stroke:none"
       id="rect4816"
       width="48"
       height="48"
       x="127.85714"
       y="386.64789" />
    <path
       transform="matrix(0.03394976,0.03394976,-0.01759607,0.01759607,341.31129,411.60594)"
       d="m 379.81735,534.15393 a 116.16754,114.14724 0 1 1 -232.33508,0"
       sodipodi:ry="114.14724"
       sodipodi:rx="116.16754"
       sodipodi:cy="534.15393"
       sodipodi:cx="263.64981"
       id="path3717-0-7-1-1"
       style="fill:none;stroke:#f9f9f9;stroke-width:18.39486313;stroke-linejoin:miter;stroke-miterlimit:4;stroke-opacity:1;stroke-dasharray:none;display:inline"
       sodipodi:type="arc"
       sodipodi:start="0"
       sodipodi:end="3.1415927"
       sodipodi:open="true" />
    <rect
       style="fill:#f9f9f9;fill-opacity:1;stroke-width:1.09800005;stroke-miterlimit:4;stroke-dasharray:none"
       id="rect4668"
       width="0.65410173"
       height="4.2718153"
       x="550.32684"
       y="59.117432"
       transform="matrix(0.70710678,0.70710678,-0.70710678,0.70710678,0,0)" />
    <rect
       style="fill:#f9f9f9;fill-opacity:1;stroke-width:1.09800005;stroke-miterlimit:4;stroke-dasharray:none;display:inline"
       id="rect4668-8"
       width="0.65410173"
       height="4.271975"
       x="539.17194"
       y="59.117115"
       transform="matrix(0.70710678,0.70710678,-0.70710678,0.70710678,0,0)" />
    <path
       transform="matrix(0.01454455,0.01454455,-0.0075384,0.0075384,345.19818,417.98053)"
       d="m 379.81735,534.15393 a 116.16754,114.14724 0 1 1 -232.33508,0 116.16754,114.14724 0 1 1 232.33508,0 z"
       sodipodi:ry="114.14724"
       sodipodi:rx="116.16754"
       sodipodi:cy="534.15393"
       sodipodi:cx="263.64981"
       id="path3717-0-7-1-8"
       style="fill:none;stroke:#f9f9f9;stroke-width:18.39486313;stroke-linejoin:miter;stroke-miterlimit:4;stroke-opacity:1;stroke-dasharray:none;display:inline"
       sodipodi:type="arc" />
    <rect
       style="fill:#f9f9f9;fill-opacity:1;stroke-width:1.09800005;stroke-miterlimit:4;stroke-dasharray:none"
       id="rect4668-9"
       width="0.28022626"
       height="1.8301051"
       x="547.32123"
       y="57.253582"
       transform="matrix(0.70710678,0.70710678,-0.70710678,0.70710678,0,0)" />
    <rect
       style="fill:#f9f9f9;fill-opacity:1;stroke-width:1.09800005;stroke-miterlimit:4;stroke-dasharray:none;display:inline"
       id="rect4668-8-6"
       width="0.28022626"
       height="1.8301735"
       x="542.5423"
       y="57.253452"
       transform="matrix(0.70710678,0.70710678,-0.70710678,0.70710678,0,0)" />
    <path
       transform="matrix(-0.06523688,-0.06523688,0.02733532,-0.02733532,364.92751,462.72992)"
       d="m 379.81735,534.15393 a 116.16754,114.14724 0 1 1 -232.33508,0 116.16754,114.14724 0 1 1 232.33508,0 z"
       sodipodi:ry="114.14724"
       sodipodi:rx="116.16754"
       sodipodi:cy="534.15393"
       sodipodi:cx="263.64981"
       id="path3717-0-7-7-7-2-1-7"
       style="fill:none;stroke:#f9f9f9;stroke-width:39.96276474;stroke-linejoin:miter;stroke-miterlimit:4;stroke-opacity:1;stroke-dasharray:none;display:inline"
       sodipodi:type="arc" />
    <path
       transform="matrix(0.03394976,0.03394976,-0.01759607,0.01759607,366.34242,409.02526)"
       d="m 379.81735,534.15393 a 116.16754,114.14724 0 1 1 -232.33508,0 116.16754,114.14724 0 1 1 232.33508,0 z"
       sodipodi:ry="114.14724"
       sodipodi:rx="116.16754"
       sodipodi:cy="534.15393"
       sodipodi:cx="263.64981"
       id="path3717-0-7-1-2"
       style="fill:#000000;fill-opacity:0;stroke:#f9f9f9;stroke-width:18.39486313;stroke-linejoin:miter;stroke-miterlimit:4;stroke-opacity:1;stroke-dasharray:none;display:inline"
       sodipodi:type="arc" />
    <g
       id="g3941"
       transform="translate(-17.79768,-17.3137)">
      <path
         sodipodi:open="true"
         sodipodi:end="3.1415927"
         sodipodi:start="0"
         sodipodi:type="arc"
         style="fill:none;stroke:#f9f9f9;stroke-width:18.39486313;stroke-linejoin:miter;stroke-miterlimit:4;stroke-opacity:1;stroke-dasharray:none;display:inline"
         id="path3717-0-7-1-1-6"
         sodipodi:cx="263.64981"
         sodipodi:cy="534.15393"
         sodipodi:rx="116.16754"
         sodipodi:ry="114.14724"
         d="m 379.81735,534.15393 c 0,63.04178 -52.00998,114.14724 -116.16754,114.14724 -64.15756,0 -116.16754,-51.10546 -116.16754,-114.14724 0,0 0,0 0,0"
         transform="matrix(0.03394976,0.03394976,-0.01759607,0.01759607,359.10897,428.91964)" />
      <path
         sodipodi:type="arc"
         style="fill:none;stroke:#f9f9f9;stroke-width:18.39486313;stroke-linejoin:miter;stroke-miterlimit:4;stroke-opacity:1;stroke-dasharray:none;display:inline"
         id="path3717-0-7-1-8-4"
         sodipodi:cx="263.64981"
         sodipodi:cy="534.15393"
         sodipodi:rx="116.16754"
         sodipodi:ry="114.14724"
         d="m 379.81735,534.15393 c 0,63.04178 -52.00998,114.14724 -116.16754,114.14724 -64.15756,0 -116.16754,-51.10546 -116.16754,-114.14724 0,-63.04178 52.00998,-114.14724 116.16754,-114.14724 64.15756,0 116.16754,51.10546 116.16754,114.14724 z"
         transform="matrix(0.01454455,0.01454455,-0.0075384,0.0075384,362.99586,435.29423)" />
      <rect
         transform="matrix(0.70710678,0.70710678,-0.70710678,0.70710678,0,0)"
         y="56.91135"
         x="572.14874"
         height="1.8301051"
         width="0.28022626"
         id="rect4668-9-8"
         style="fill:#f9f9f9;fill-opacity:1;stroke-width:1.09800005;stroke-miterlimit:4;stroke-dasharray:none" />
      <rect
         transform="matrix(0.70710678,0.70710678,-0.70710678,0.70710678,0,0)"
         y="56.911221"
         x="567.36981"
         height="1.8301735"
         width="0.28022626"
         id="rect4668-8-6-5"
         style="fill:#f9f9f9;fill-opacity:1;stroke-width:1.09800005;stroke-miterlimit:4;stroke-dasharray:none;display:inline" />
      <path
         sodipodi:type="arc"
         style="fill:#000000;fill-opacity:0;stroke:#f9f9f9;stroke-width:18.39486313;stroke-linejoin:miter;stroke-miterlimit:4;stroke-opacity:1;stroke-dasharray:none;display:inline"
         id="path3717-0-7-1-22"
         sodipodi:cx="263.64981"
         sodipodi:cy="534.15393"
         sodipodi:rx="116.16754"
         sodipodi:ry="114.14724"
         d="m 379.81735,534.15393 c 0,63.04178 -52.00998,114.14724 -116.16754,114.14724 -64.15756,0 -116.16754,-51.10546 -116.16754,-114.14724 0,-63.04178 52.00998,-114.14724 116.16754,-114.14724 64.15756,0 116.16754,51.10546 116.16754,114.14724 z"
         transform="matrix(0.03394976,0.03394976,-0.01759607,0.01759607,362.02611,426.03808)" />
    </g>
  </g>
</svg>
